<svg width="36" height="36" viewBox="0 0 36 36" fill="none" xmlns="http://www.w3.org/2000/svg">
<path d="M18.7449 17.5505C18.7449 16.9968 19.1561 16.5521 19.6769 16.5521C20.1887 16.5521 20.609 16.9968 20.609 17.5505C20.609 18.1043 20.1978 18.549 19.6769 18.549C19.1652 18.549 18.7449 18.1043 18.7449 17.5505Z" fill="#C0C0C2"/>
<path d="M15.4097 17.5505C15.4097 16.9968 15.8209 16.5521 16.3417 16.5521C16.8626 16.5521 17.2829 16.9968 17.2737 17.5505C17.2737 18.1043 16.8626 18.549 16.3417 18.549C15.83 18.549 15.4097 18.1043 15.4097 17.5505Z" fill="#C0C0C2"/>
<path fill-rule="evenodd" clip-rule="evenodd" d="M11.8732 9H24.1176C25.1502 9 25.9909 9.8351 26 10.8608V27L24.0263 25.3026L22.9206 24.295L21.751 23.2239L22.2353 24.885H11.8732C10.8407 24.885 10 24.0499 10 23.0242V10.8608C10 9.8351 10.8407 9 11.8732 9ZM19.9874 20.0287C20.2616 20.3646 20.5905 20.7549 20.5905 20.7549C22.5037 20.6947 23.2933 19.5183 23.3711 19.4025C23.3754 19.396 23.3775 19.3933 23.3775 19.3933C23.3775 16.4977 22.0617 14.1467 22.0617 14.1467C20.755 13.1755 19.5031 13.2027 19.5031 13.2027L19.3752 13.348C20.9286 13.8109 21.6505 14.4917 21.6505 14.4917C20.7002 13.9834 19.7681 13.7292 18.9001 13.6293C18.2421 13.5567 17.6117 13.5749 17.0543 13.6475C17.0064 13.6475 16.9655 13.6544 16.9194 13.6622C16.9127 13.6634 16.9059 13.6645 16.8989 13.6657C16.5791 13.702 15.8024 13.8109 14.8247 14.2375C14.4866 14.3828 14.2856 14.4917 14.2856 14.4917C14.2856 14.4917 15.0348 13.7746 16.6796 13.3116L16.5882 13.2027C16.5882 13.2027 15.3455 13.1755 14.0297 14.1467C14.0297 14.1467 12.7139 16.4977 12.7139 19.3933C12.7139 19.3933 13.4814 20.7005 15.5009 20.764C15.5009 20.764 15.8389 20.3646 16.1131 20.0197C14.9526 19.6747 14.514 18.9576 14.514 18.9576C14.514 18.9576 14.6054 19.0212 14.7698 19.112C14.7755 19.112 14.7811 19.1154 14.7889 19.1202C14.7938 19.1232 14.7994 19.1266 14.8064 19.1301C14.8201 19.1392 14.8338 19.146 14.8475 19.1528C14.8612 19.1596 14.8749 19.1664 14.8886 19.1755C15.1171 19.3026 15.3455 19.4024 15.5557 19.4841C15.9303 19.6384 16.3781 19.7746 16.8989 19.8744C17.5842 20.0015 18.3883 20.0469 19.2656 19.8835C19.695 19.8018 20.1336 19.6838 20.5905 19.4932C20.9103 19.3752 21.2667 19.2027 21.6413 18.9576C21.6413 18.9576 21.1845 19.6929 19.9874 20.0287Z" fill="#C0C0C2"/>
</svg>
