<svg width="36" height="36" viewBox="0 0 36 36" fill="none" xmlns="http://www.w3.org/2000/svg">
<path d="M16.513 12.2924C16.513 12.7208 16.513 14.6329 16.513 14.6329H15V17.495H16.513V26H19.6211V17.4952H21.7067C21.7067 17.4952 21.902 16.1229 21.9967 14.6224C21.7253 14.6224 19.6328 14.6224 19.6328 14.6224C19.6328 14.6224 19.6328 12.9573 19.6328 12.6655C19.6328 12.373 19.9717 11.9796 20.3066 11.9796C20.6409 11.9796 21.3465 11.9796 22 11.9796C22 11.5899 22 10.2435 22 9C21.1276 9 20.1351 9 19.6976 9C16.4362 8.9998 16.513 11.8647 16.513 12.2924Z" fill="#C0C0C2"/>
</svg>
