<svg width="36" height="36" viewBox="0 0 36 36" fill="none" xmlns="http://www.w3.org/2000/svg">
<path fill-rule="evenodd" clip-rule="evenodd" d="M21.6377 9H14.3623C11.4055 9 9 11.4055 9 14.3623V21.6377C9 24.5945 11.4055 27 14.3623 27H21.6377C24.5945 27 27 24.5945 27 21.6377V14.3623C27 11.4055 24.5945 9 21.6377 9ZM25.1892 21.6377C25.1892 23.5991 23.5991 25.1892 21.6377 25.1892H14.3623C12.4009 25.1892 10.8108 23.5991 10.8108 21.6377V14.3623C10.8108 12.4008 12.4009 10.8108 14.3623 10.8108H21.6377C23.5991 10.8108 25.1892 12.4008 25.1892 14.3623V21.6377ZM18.0002 13.3442C15.4332 13.3442 13.3447 15.4327 13.3447 17.9996C13.3447 20.5666 15.4332 22.6551 18.0002 22.6551C20.5672 22.6551 22.6556 20.5667 22.6556 17.9996C22.6556 15.4326 20.5672 13.3442 18.0002 13.3442ZM18.0002 20.8443C16.4291 20.8443 15.1555 19.5707 15.1555 17.9997C15.1555 16.4286 16.4291 15.155 18.0002 15.155C19.5712 15.155 20.8448 16.4286 20.8448 17.9997C20.8448 19.5707 19.5712 20.8443 18.0002 20.8443ZM23.7798 13.3797C23.7798 13.9958 23.2804 14.4952 22.6643 14.4952C22.0482 14.4952 21.5487 13.9958 21.5487 13.3797C21.5487 12.7636 22.0482 12.2642 22.6643 12.2642C23.2804 12.2642 23.7798 12.7636 23.7798 13.3797Z" fill="#C0C0C2"/>
</svg>
