<svg width="36" height="36" viewBox="0 0 36 36" fill="none" xmlns="http://www.w3.org/2000/svg">
<path d="M29.0546 15.2568C29.0546 16.5536 27.9774 17.6053 26.6488 17.6053C25.3187 17.6053 24.2423 16.5536 24.2423 15.2568C24.2423 13.96 25.3193 12.9086 26.6488 12.9086C27.9774 12.9086 29.0546 13.96 29.0546 15.2568ZM28.0851 19.2247L25.1714 21.6569C25.2029 21.851 25.2242 22.0483 25.2242 22.2506C25.2242 24.3212 23.5042 26 21.3832 26C19.5534 26 18.0254 24.7508 17.6383 23.0793L10.436 20.6943C9.86691 21.116 9.15942 21.3696 8.38982 21.3696C6.51782 21.3693 5 19.8875 5 18.0603C5 16.2335 6.51782 14.7525 8.38982 14.7525C9.99951 14.7525 11.344 15.8477 11.691 17.3152L18.6483 19.6192C19.326 18.9487 20.2606 18.5284 21.2962 18.5058L22.3382 15.4142C22.3351 15.3527 22.3287 15.2922 22.3287 15.2302C22.3287 12.8939 24.27 11 26.6644 11C29.0584 11 31 12.8939 31 15.2302C31 17.0811 29.7806 18.6501 28.0851 19.2247ZM10.5212 16.928C10.1162 16.2165 9.33882 15.7345 8.44587 15.7345C7.13489 15.7345 6.07207 16.7718 6.07207 18.051C6.07207 19.3302 7.13489 20.3672 8.44587 20.3672C8.68824 20.3672 8.92167 20.3318 9.1418 20.2659L8.01398 19.8926C7.10513 19.4177 6.76309 18.3136 7.24987 17.4267C7.73693 16.5403 8.86822 16.2069 9.7762 16.6818L10.5212 16.928ZM23.2832 15.2404C23.2832 17.0551 24.7906 18.5262 26.6502 18.5262C28.5098 18.5262 30.0181 17.0551 30.0181 15.2404C30.0181 13.4249 28.5095 11.9538 26.6502 11.9538C24.7906 11.9538 23.2832 13.4249 23.2832 15.2404ZM23.3496 22.5721C23.3496 21.1908 22.2019 20.0703 20.7863 20.0703C20.5876 20.0703 20.3958 20.0946 20.2103 20.136L21.6429 20.6103C22.5514 21.0858 22.8926 22.1895 22.4061 23.0756C21.9194 23.9634 20.7881 24.296 19.8801 23.8214L18.3363 23.31C18.6587 24.3314 19.6337 25.0737 20.7863 25.0737C22.2019 25.074 23.3496 23.9535 23.3496 22.5721Z" fill="#C0C0C2"/>
</svg>
