<svg width="36" height="36" viewBox="0 0 36 36" fill="none" xmlns="http://www.w3.org/2000/svg">
<path d="M28 11.8931C27.2639 12.2143 26.4741 12.4322 25.6442 12.5294C26.4915 12.0297 27.1402 11.237 27.4476 10.2954C26.6527 10.7582 25.7754 11.0942 24.8406 11.2764C24.092 10.4899 23.0271 10 21.8461 10C19.5803 10 17.7431 11.8094 17.7431 14.0397C17.7431 14.356 17.7794 14.665 17.8494 14.9604C14.44 14.7917 11.4168 13.183 9.39347 10.7385C9.03977 11.3342 8.83856 12.0284 8.83856 12.7694C8.83856 14.1714 9.56343 15.4084 10.6632 16.1321C9.99085 16.11 9.35847 15.9278 8.80484 15.625V15.6755C8.80484 17.6326 10.2196 19.2659 12.0955 19.6376C11.7518 19.7287 11.3894 19.7792 11.0144 19.7792C10.7495 19.7792 10.4933 19.7534 10.2421 19.7041C10.7644 21.3104 12.2792 22.4785 14.0739 22.5105C12.6704 23.5937 10.9007 24.2374 8.97856 24.2374C8.64739 24.2374 8.32118 24.2177 8 24.182C9.81592 25.3304 11.9718 26 14.2888 26C21.8362 26 25.9617 19.8432 25.9617 14.5037L25.9479 13.9806C26.754 13.4144 27.4513 12.703 28 11.8931Z" fill="#C0C0C2"/>
</svg>
