<svg width="36" height="36" viewBox="0 0 36 36" fill="none" xmlns="http://www.w3.org/2000/svg">
<path fill-rule="evenodd" clip-rule="evenodd" d="M25.2129 19.6301C25.8763 20.3169 26.5765 20.963 27.1715 21.719C27.4344 22.0549 27.6832 22.4016 27.8736 22.7915C28.1433 23.3457 27.899 23.9556 27.4303 23.9887L24.5166 23.9873C23.7652 24.0534 23.1657 23.7327 22.6616 23.1879C22.2582 22.7523 21.8846 22.2886 21.4967 21.8383C21.3377 21.6542 21.1713 21.481 20.9724 21.3441C20.5747 21.0704 20.2294 21.1542 20.0021 21.594C19.7706 22.0414 19.7181 22.5367 19.6954 23.0353C19.6642 23.7627 19.4568 23.954 18.7676 23.9873C17.2947 24.0609 15.8969 23.8246 14.5984 23.0369C13.4536 22.3424 12.5658 21.362 11.7931 20.2521C10.2886 18.0909 9.13649 15.716 8.10101 13.2746C7.86793 12.7246 8.03838 12.4293 8.6108 12.4189C9.56132 12.3993 10.5117 12.4007 11.4633 12.4175C11.8497 12.4235 12.1054 12.6584 12.2546 13.0453C12.7688 14.386 13.3981 15.6615 14.1879 16.8438C14.3983 17.1586 14.6128 17.4734 14.9182 17.6949C15.2561 17.9402 15.5133 17.8589 15.6723 17.4598C15.7732 17.2068 15.8173 16.9343 15.8401 16.6632C15.9154 15.7308 15.9253 14.8 15.7932 13.8709C15.7121 13.2911 15.4041 12.9157 14.8583 12.8059C14.5798 12.75 14.6213 12.6401 14.7562 12.4716C14.9903 12.1809 15.2106 12 15.6497 12H18.9426C19.461 12.1085 19.5761 12.3554 19.6471 12.9084L19.6499 16.7865C19.6442 17.0006 19.7508 17.6359 20.1145 17.7776C20.4056 17.8785 20.5975 17.6316 20.7721 17.4359C21.5605 16.5487 22.1232 15.5002 22.6259 14.4146C22.849 13.9372 23.0408 13.4414 23.2267 12.9461C23.3644 12.5785 23.5806 12.3976 23.9711 12.4056L27.1403 12.4086C27.2343 12.4086 27.3294 12.4101 27.4204 12.4266C27.9544 12.5231 28.1007 12.7667 27.9358 13.3196C27.6759 14.187 27.1703 14.9099 26.6759 15.6362C26.1473 16.4115 25.5821 17.1603 25.058 17.9403C24.5764 18.6525 24.6147 19.0115 25.2129 19.6301Z" fill="#C0C0C2"/>
</svg>
