<svg width="196" height="72" viewBox="0 0 196 72" fill="none" xmlns="http://www.w3.org/2000/svg">
<path fill-rule="evenodd" clip-rule="evenodd" d="M164.027 27.6994C164.06 28.0691 164.666 29.3327 164.869 29.8099L169.513 40.1946C169.683 40.5374 169.787 40.8466 169.963 41.223L171.399 44.4023C171.94 45.76 172.22 45.0341 171.085 47.4673L168.241 53.6914C168.039 54.256 168.515 54.0409 169.096 54.1081L174.517 54.6727C174.954 54.713 176.983 54.8609 177.211 54.9752C177.27 54.7265 177.407 54.4106 177.491 54.1686L184.119 36.3029C184.961 34.1453 185.802 31.6583 186.631 29.4738C186.82 28.9765 186.983 28.553 187.126 28.0354L187.224 27.6994C185.3 27.6994 180.981 27.0071 178.757 27.0071L176.774 33.5941C176.656 34.0243 176.565 34.2999 176.454 34.6561C176.356 34.9653 176.18 35.5232 176.154 35.8324C175.815 35.577 173.956 29.8906 173.76 29.2722C173.63 28.8622 173.493 28.553 173.375 28.1833C173.251 27.8069 173.055 27.3364 172.977 27.0071L171.275 27.1012L169.168 27.2625L166.252 27.5179C165.554 27.5918 164.829 27.6994 164.021 27.6994H164.027Z" fill="white"/>
<path fill-rule="evenodd" clip-rule="evenodd" d="M148.239 27.9022V54.3781L162.969 54.3848L163.875 50.6544C164.026 49.9823 164.176 49.3841 164.293 48.806L164.704 46.8433H156.524V44.0674H161.625V37.4198H156.524V34.8388L164.045 34.8455L163.765 33.2256C163.497 31.9351 163.197 30.6311 162.91 29.3406L162.466 27.593H148.532C148.311 27.593 148.245 27.6602 148.245 27.8887L148.239 27.9022Z" fill="white"/>
<path fill-rule="evenodd" clip-rule="evenodd" d="M136.496 27.5985V40.1946C136.268 40.0199 134.872 37.5262 134.611 37.0758L130.031 29.1042C129.862 28.8151 129.725 28.5799 129.562 28.2976C129.288 27.8204 129.281 27.5985 128.988 27.5985H121.381V54.9752C123.925 54.8206 126.861 54.5853 129.307 54.3837L129.275 52.3941C129.275 48.7914 129.275 45.1887 129.275 41.586C129.516 41.7674 130.945 44.2746 131.219 44.7383L136.437 53.6443L136.861 54.377L144.494 54.3433L144.487 27.0071L136.496 27.6053V27.5985Z" fill="white"/>
<path fill-rule="evenodd" clip-rule="evenodd" d="M104.35 47.0368C98.6874 47.0368 96.2411 40.4699 99.9464 36.6454C103.691 32.7805 110.032 35.6439 110.032 40.8866C110.032 42.7485 109.301 44.1801 108.375 45.1279C107.305 46.2168 106.039 47.0368 104.356 47.0368H104.35ZM89.5286 40.8866C89.5286 44.0726 90.4027 46.5528 92.1705 48.9793C93.5731 50.9084 95.8889 52.7769 98.1394 53.7381C98.9875 54.1011 99.8681 54.3968 100.853 54.6119C101.303 54.7127 101.943 54.8135 102.347 54.8539C103.58 54.9816 104.513 54.9211 105.7 54.8673C110.599 54.6388 115.009 51.2175 117.318 46.9023C117.723 46.1495 118.127 45.0943 118.303 44.2474C119.425 38.9038 118.107 34.8776 114.533 31.1875C112.256 28.835 108.518 27 105.028 27C102.138 27 100.416 27.0471 97.7415 28.3242C96.2476 29.0366 94.7799 30.065 93.6905 31.1942C91.1529 33.8223 89.5286 36.7462 89.5286 40.8866Z" fill="white"/>
<path fill-rule="evenodd" clip-rule="evenodd" d="M62.6724 27.6988C62.6854 28.1962 63.827 32.1484 63.827 35.731C63.827 40.5973 63.6639 43.1313 61.8896 47.6213C61.0807 49.6781 60.1543 51.2509 58.9606 53.0321C58.5692 53.6169 58.1321 54.121 57.7668 54.6789C61.2046 54.6789 64.6359 54.8671 68.0802 54.8671L69.4175 42.4794L74.3231 55.5728L79.1374 42.4794C79.1439 42.7953 79.2352 43.5346 79.2874 43.911L79.7114 48.4346C79.7767 49.4092 79.8876 50.5048 79.9854 51.4257C80.0963 52.4272 80.1876 54.0336 80.3377 54.941C83.071 54.7662 85.7195 54.5175 88.4397 54.242C88.4528 54.0134 88.2832 52.9582 88.2375 52.6423L85.2955 27.6047H77.8849L75.2951 34.958L74.3623 37.3307L73.9513 36.1208L71.3746 28.8616C71.218 28.3911 71.0549 28.0551 70.9571 27.6114C68.0998 27.6114 65.4448 27.7123 62.6789 27.7123L62.6724 27.6988Z" fill="white"/>
<path fill-rule="evenodd" clip-rule="evenodd" d="M50.8332 41.6868C50.8332 45.0408 50.6375 47.1245 49.6199 50.2567C48.6414 53.2679 47.415 55.9968 45.6211 58.4367C45.3275 58.8333 45.0666 59.2433 44.7404 59.613L43.7815 60.7086C42.1245 62.6444 41.4265 62.9468 39.6326 64.3651C39.5413 64.439 39.5152 64.4525 39.463 64.4995C41.7396 64.4995 46.5409 62.1604 48.4979 60.7019C50.1809 59.4517 50.905 58.8266 52.3989 57.2806C53.7753 55.8624 55.1061 54.014 56.1498 52.3135C56.8087 51.2447 58.1329 48.6368 58.5504 47.4471C58.6743 47.0841 58.7983 46.7548 58.9353 46.3582C59.1962 45.6323 59.418 44.9669 59.6463 44.12C59.8812 43.273 60.6314 40.1072 60.6509 39.2065C58.2829 38.037 57.7285 40.2954 57.311 40.7256C56.6782 41.3776 55.4909 41.3843 54.8451 40.7256C54.4537 40.329 54.5385 40.2349 54.4146 39.6838C53.984 37.7211 51.6552 36.034 49.5808 36.034C48.7979 36.034 49.8156 36.7465 50.3375 38.4269C50.6114 39.3006 50.8267 40.5576 50.8267 41.6868H50.8332Z" fill="#D45F93"/>
<path fill-rule="evenodd" clip-rule="evenodd" d="M46.1229 14.6064C43.1091 14.6064 43.6245 11.8775 44.89 10.466C46.3513 8.83937 50.5458 7.36064 50.5458 10.7416C50.5458 12.5227 47.9234 14.6064 46.1164 14.6064H46.1229ZM42.5612 12.0254C42.5612 14.4317 43.9115 15.8835 46.0969 16.4145C46.4752 16.5086 47.3624 16.3809 47.7799 16.5691C48.5105 16.8984 49.3325 17.8462 49.3846 18.8813C49.4107 19.419 49.1498 20.0575 49.1041 20.5549C49.5347 20.6759 50.3958 21.5295 50.6697 21.9127C52.2745 24.1308 51.1199 25.6162 51.1199 26.4026C51.1199 26.9538 53.3313 27.5587 53.3313 29.9717C53.3313 32.0688 51.4591 33.2585 49.8282 33.803C49.0324 34.0651 48.5757 34.2197 48.9998 35.1271C52.5746 35.1271 54.5251 35.9337 55.5101 39.1331C55.7384 39.8792 56.1494 40.3094 56.5995 39.7851C56.6452 39.7313 57.2649 36.8411 60.1026 38.0711C60.5201 38.2526 60.7353 38.5013 61.1267 38.6021C61.6617 38.2324 61.5508 37.7418 61.4464 36.8881C61.2898 35.6245 61.5312 36.4176 60.7092 35.0666C60.5266 34.7709 60.4092 34.5558 60.2396 34.26C57.6041 29.7634 60.357 26.9336 60.357 26.2077C60.357 24.4668 59.1958 20.5616 58.5957 18.9955C57.3236 15.655 56.0254 13.1882 54.1989 10.3383C52.679 7.96558 53.0443 7.80426 50.5589 7.44802C49.9326 7.36064 49.4042 7.25982 48.7714 7.11195C48.23 6.98424 47.6233 6.80276 47.1471 6.60784C44.2312 5.41813 45.7642 6.11045 44.8117 7.51524C44.6356 7.77738 44.5378 7.86476 44.3421 8.12017C43.5658 9.13512 42.5547 10.4996 42.5547 12.0321L42.5612 12.0254Z" fill="#D45F93"/>
<path fill-rule="evenodd" clip-rule="evenodd" d="M29.468 35.7306C29.468 37.2631 29.7877 38.5133 30.4596 39.7635C32.4492 43.4469 39.3771 44.2266 39.3771 45.6448C39.3771 47.473 37.1852 47.2311 35.5283 47.2311C34.5041 47.2311 33.5321 47.137 32.5862 46.9891L29.7551 46.532V54.1676C33.5647 54.6247 36.6764 55.3103 40.4926 54.5239C42.1625 54.1811 43.6238 53.6098 44.7654 52.783C48.8751 49.8054 49.0904 43.0369 45.4373 40.1869C43.5455 38.7082 41.6994 37.9487 39.5206 37.0615C36.011 35.6298 38.3398 34.4401 40.2381 34.4401C42.58 34.4401 44.511 34.6888 46.7811 35.2332C45.8743 31.16 45.3655 29.735 44.1848 27.3623L43.9434 27.3153C43.7869 27.2884 43.6303 27.2615 43.4672 27.2346C37.2439 26.2735 29.455 27.6379 29.455 35.7239L29.468 35.7306Z" fill="white"/>
<path fill-rule="evenodd" clip-rule="evenodd" d="M8.77671 40.2972C8.77671 42.979 8.72452 43.7655 9.60518 46.3868C10.7598 49.8215 13.8976 52.9941 17.2832 54.1434C20.1404 55.1181 22.6063 55.1181 25.6657 54.5736C26.0245 54.5131 26.3833 54.4392 26.7356 54.3652L26.9052 53.1688L27.1009 51.6834L27.551 48.2352L27.8315 45.8491L26.9639 46.2457C23.924 47.8118 19.1815 47.2405 17.4659 43.4361C16.7874 41.9305 16.8461 39.7057 17.505 38.2807C18.1312 36.923 19.4163 35.8341 20.7928 35.3165C22.6193 34.6309 24.2502 34.7923 25.4896 35.1082C25.5744 35.1283 25.6592 35.1552 25.744 35.1754C26.1811 35.3031 26.6182 35.4644 27.0618 35.5988L27.8054 35.9148C27.6423 35.4174 26.5334 27.7414 26.4094 27.4994C25.9984 27.076 22.6128 26.9953 21.6734 26.9953C19.5207 26.9953 17.0353 27.8288 15.424 28.7833C13.9171 29.6772 12.195 31.2568 11.2034 32.7624C10.7663 33.4278 10.3293 34.1134 10.0031 34.8998C9.39643 36.3651 8.77671 38.2471 8.77671 40.2837V40.2972Z" fill="white"/>
</svg>
