<svg width="40" height="28" viewBox="0 0 40 28" fill="none" xmlns="http://www.w3.org/2000/svg">
<path d="M35.0248 16.8838C33.1908 16.8838 31.4572 16.8838 29.7195 16.8838C29.916 14.8858 31.8882 12.908 33.813 12.8502C35.8151 12.7896 37.8212 12.8367 39.8666 12.8367C39.8842 13.0776 39.91 13.2726 39.91 13.4677C39.9113 17.5255 39.9086 21.5847 39.914 25.6425C39.914 25.9708 39.9235 26.2385 39.5006 26.3529C34.9448 27.5907 30.3633 28.0858 25.7479 26.7135C22.4514 25.734 19.9478 23.7629 18.4677 20.6281C18.2914 20.2554 18.0434 20.2608 17.7194 20.2393C16.4182 20.1491 15.0857 20.176 13.8251 19.8962C10.8472 19.2342 9.08639 17.0937 7.77293 14.5373C7.4178 13.8458 7.25243 13.0614 6.95964 12.3362C6.87154 12.1196 6.68719 11.8653 6.48252 11.7806C2.64651 10.1983 0.727157 7.18458 0.0724609 3.26939C-0.0766416 2.37872 0.0521288 1.4423 0.0426404 0.526063C0.038574 0.117053 0.239185 -0.0161441 0.633629 0.00538273C1.06196 0.0296004 1.49165 0.00941901 1.92133 0.00941901C12.8763 0.00672816 23.8313 0.00269187 34.7863 1.01823e-06C37.4958 -0.00134441 39.1753 1.33063 39.8476 4.06588C28.0305 4.06588 16.2325 4.06588 4.42219 4.06588C4.76377 6.40962 7.08028 8.47216 9.14603 8.3726C11.3094 8.269 13.4822 8.39412 15.6496 8.34165C17.4605 8.29725 18.7076 9.10047 19.5561 10.6208C19.8272 11.1065 20.0698 11.6084 20.3897 12.2259C17.2586 12.2259 14.2494 12.2259 11.2348 12.2259C11.4029 14.2252 13.6272 16.32 15.5263 16.3308C17.7167 16.3429 19.9085 16.3308 22.099 16.3348C24.6812 16.3389 26.3281 17.6318 27.0139 20.2339C26.0448 20.2339 25.0905 20.2339 24.1363 20.2339C24.097 20.2998 24.059 20.3644 24.0197 20.4303C24.6419 20.947 25.2206 21.5309 25.8957 21.9681C27.8083 23.2019 29.9716 23.4777 32.1932 23.4104C32.9808 23.3876 33.7696 23.2867 34.549 23.1696C34.7239 23.1427 34.9991 22.9019 35.0018 22.7552C35.0357 20.8313 35.0248 18.906 35.0248 16.8838Z" fill="#0081D0"/>
</svg>
