<svg width="20" height="20" viewBox="0 0 20 20" fill="none" xmlns="http://www.w3.org/2000/svg">
<path d="M5.88824 4C5.72255 4 5.58824 4.13431 5.58824 4.3V5.35909C5.58824 5.52467 5.72239 5.65895 5.88797 5.65909L12.1588 5.66471L5.21213 12.6114C5.09498 12.7286 5.09498 12.9186 5.21214 13.0357L5.96434 13.7879C6.0815 13.905 6.27144 13.905 6.3886 13.7879L13.3353 6.84119L13.3296 13.1115C13.3295 13.2773 13.4638 13.4118 13.6296 13.4118H14.7C14.8657 13.4118 15 13.2775 15 13.1118V4.3C15 4.13432 14.8657 4 14.7 4H5.88824Z" fill="#8678D7"/>
</svg>
