<svg width="122" height="28" viewBox="0 0 122 28" fill="none" xmlns="http://www.w3.org/2000/svg">
<path d="M4.20032 7.00032C4.20032 5.45392 5.45392 4.20032 7.00032 4.20032H21.0003C22.5467 4.20032 23.8003 5.45392 23.8003 7.00032V21.0003C23.8003 22.5467 22.5467 23.8003 21.0003 23.8003H7.00032C5.45392 23.8003 4.20032 22.5467 4.20032 21.0003V7.00032Z" fill="#00B67A"/>
<path d="M20.9999 12.059H15.6538L14.0025 6.99951L12.3461 12.059L6.99994 12.0539L11.3295 15.184L9.67299 20.2384L14.0025 17.1134L18.3269 20.2384L16.6756 15.184L20.9999 12.059Z" fill="white"/>
<path d="M27.5336 7.00032C27.5336 5.45392 28.7872 4.20032 30.3336 4.20032H44.3336C45.88 4.20032 47.1336 5.45392 47.1336 7.00032V21.0003C47.1336 22.5467 45.88 23.8003 44.3336 23.8003H30.3336C28.7872 23.8003 27.5336 22.5467 27.5336 21.0003V7.00032Z" fill="#00B67A"/>
<path d="M44.3333 12.059H38.9871L37.3358 6.99951L35.6794 12.059L30.3333 12.0539L34.6628 15.184L33.0063 20.2384L37.3358 17.1134L41.6602 20.2384L40.0089 15.184L44.3333 12.059Z" fill="white"/>
<path d="M50.867 7.00032C50.867 5.45392 52.1206 4.20032 53.667 4.20032H67.667C69.2134 4.20032 70.467 5.45392 70.467 7.00032V21.0003C70.467 22.5467 69.2134 23.8003 67.667 23.8003H53.667C52.1206 23.8003 50.867 22.5467 50.867 21.0003V7.00032Z" fill="#00B67A"/>
<path d="M67.6666 12.059H62.3205L60.6692 6.99951L59.0127 12.059L53.6666 12.0539L57.9962 15.184L56.3397 20.2384L60.6692 17.1134L64.9936 20.2384L63.3423 15.184L67.6666 12.059Z" fill="white"/>
<path d="M74.2003 7.00032C74.2003 5.45392 75.4539 4.20032 77.0003 4.20032H91.0003C92.5467 4.20032 93.8003 5.45392 93.8003 7.00032V21.0003C93.8003 22.5467 92.5467 23.8003 91.0003 23.8003H77.0003C75.4539 23.8003 74.2003 22.5467 74.2003 21.0003V7.00032Z" fill="#00B67A"/>
<path d="M90.9999 12.059H85.6538L84.0025 6.99951L82.3461 12.059L76.9999 12.0539L81.3295 15.184L79.673 20.2384L84.0025 17.1134L88.3269 20.2384L86.6756 15.184L90.9999 12.059Z" fill="white"/>
<path d="M97.5337 7.00032C97.5337 5.45392 98.7873 4.20032 100.334 4.20032H114.334C115.88 4.20032 117.134 5.45392 117.134 7.00032V21.0003C117.134 22.5467 115.88 23.8003 114.334 23.8003H100.334C98.7873 23.8003 97.5337 22.5467 97.5337 21.0003V7.00032Z" fill="#00B67A"/>
<path d="M114.333 12.059H108.987L107.336 6.99951L105.679 12.059L100.333 12.0539L104.663 15.184L103.006 20.2384L107.336 17.1134L111.66 20.2384L110.009 15.184L114.333 12.059Z" fill="white"/>
</svg>
